<svg id="SvgjsSvg1011" width="288" height="288" xmlns="http://www.w3.org/2000/svg" version="1.1" xmlns:xlink="http://www.w3.org/1999/xlink" xmlns:svgjs="http://svgjs.com/svgjs">
    <defs id="SvgjsDefs1012"></defs>
    <g id="SvgjsG1013">
        <svg xmlns="http://www.w3.org/2000/svg" viewBox="0 0 16 16" width="288" height="288">
            <path fill="#231f20" d="M10.14,2.4A3.87,3.87,0,0,0,8,3.05,3.86,3.86,0,0,0,2,6.26,3.8,3.8,0,0,0,3.5,9.31l4.15,4.14a.48.48,0,0,0,.7,0l4.1-4.1A3.86,3.86,0,0,0,10.14,2.4Zm1.65,6.2L8,12.39,4.15,8.55A2.86,2.86,0,0,1,5.86,3.4a2.88,2.88,0,0,1,1.82.65.49.49,0,0,0,.64,0A2.86,2.86,0,1,1,11.79,8.6Z" data-name="Layer 2" class="color231f20 svgShape"></path>
        </svg>
    </g>
</svg>