<svg xmlns="http://www.w3.org/2000/svg" width="32" height="32" viewBox="0 0 32 32"><g transform="translate(0 -1020.362)"><path fill="#f05542" d="m 24.545332,1037.0342 -4.27109,4.2519 -4.27108,4.2531 -8.5421784,-8.505 c -2.3661778,-2.3561 -2.3661778,-6.1491 0,-8.5046 2.3661777,-2.3566 6.1757964,-2.3566 8.5421784,0 l 0,0 c 2.366178,-2.3566 6.175982,-2.3566 8.54217,0 2.366177,2.3555 2.366177,6.1484 0,8.5046 l -8.54217,8.505 -4.271089,-4.2531 -4.2710894,-4.2519" color="#000" overflow="visible" style="isolation:auto;mix-blend-mode:normal"/><path fill="#2b4255" fill-rule="evenodd" style="line-height:normal;text-indent:0;text-align:start;text-decoration-line:none;text-decoration-style:solid;text-decoration-color:#000;text-transform:none;block-progression:tb;isolation:auto;mix-blend-mode:normal" d="M15.515625 1022.6562l0 2.7383.972656 0 0-2.7383-.972656 0zM9.3222656 1042.75l-1.5976562 2.2305.7929687.5664 1.5957029-2.2305-.7910154-.5664zM23.695312 1022.6758l-1.597656 2.2304.791016.5665 1.597656-2.2305-.791016-.5664zM6.2558594 1037.6875l-2.5566406 1.0078.3554687.9063 2.5585937-1.0078-.3574218-.9063zM29.28125 1028.6211l-2.558594 1.0078.357422.9063 2.558594-1.0079-.357422-.9062zM15.515625 1046.623l0 2.7383.972656 0 0-2.7383-.972656 0zM22.888672 1042.75l-.791016.5664 1.597656 2.2305.791016-.5664-1.597656-2.2305zM8.5175781 1022.6758l-.7929687.5664 1.5976562 2.2305.7910154-.5665-1.5957029-2.2304zM25.744141 1037.6875l-.357422.9063 2.558593 1.0078.355469-.9063-2.55664-1.0078zM2.71875 1028.6211l-.3574219.9062 2.5585938 1.0079.3574219-.9063-2.5585938-1.0078z" color="#000" font-family="sans-serif" font-weight="400" overflow="visible"/></g></svg>